<svg width="54" height="31" viewBox="0 0 54 31" fill="none" xmlns="http://www.w3.org/2000/svg">
<path d="M16.74 1.38C18.81 1.38 20.61 2.1 20.61 3.225C20.61 4.575 19.8 5.16 19.8 6.96C19.8 8.76 21.285 10.245 23.085 10.245C24.885 10.245 26.37 8.76 26.37 6.96C26.37 2.325 20.61 0.479999 15.795 0.479999C6.525 0.479999 0.45 6.735 0.45 15.6C0.45 24.465 6.525 30.72 14.85 30.72C21.51 30.72 25.2 27.03 26.37 23.97C26.595 23.43 26.505 23.115 26.145 23.115C25.74 23.115 25.605 23.43 25.29 23.835C23.265 26.4 20.745 27.48 17.55 27.48C11.205 27.48 7.11 21.405 7.11 14.25C7.11 5.16 12.24 1.38 16.74 1.38ZM28.4685 8.625C28.4685 19.515 48.6285 16.995 48.6285 24.24C48.6285 29.01 44.4885 29.82 39.9885 29.82C36.7935 29.82 33.0585 28.83 33.0585 26.805C33.0585 25.455 33.9585 24.87 33.9585 23.07C33.9585 21.27 32.4735 19.785 30.6735 19.785C28.8735 19.785 27.3885 21.27 27.3885 23.07C27.3885 27.705 33.8235 30.72 39.9885 30.72C48.5835 30.72 53.6685 26.94 53.6685 21.585C53.6685 10.83 33.7335 14.07 33.7335 6.195C33.7335 2.775 36.8835 1.38 41.2035 1.38C43.7685 1.38 46.6935 1.965 46.6935 3.225C46.6935 4.575 45.8835 5.16 45.8835 6.96C45.8835 8.76 47.3685 10.245 49.1685 10.245C50.9685 10.245 52.4535 8.76 52.4535 6.96C52.4535 2.325 45.4335 0.479999 41.2035 0.479999C33.1485 0.479999 28.4685 3.765 28.4685 8.625Z" fill="white"/>
</svg>
