<svg width="120" height="120" viewBox="0 0 120 120" fill="none" xmlns="http://www.w3.org/2000/svg">
<path fill-rule="evenodd" clip-rule="evenodd" d="M19 0C8.50659 0 0 8.50659 0 19V101C0 111.493 8.50659 120 19 120H101C111.493 120 120 111.493 120 101V19C120 8.50659 111.493 0 101 0H19ZM48.64 40.4C48.64 38.4 45.44 37.12 41.76 37.12C33.76 37.12 24.64 43.84 24.64 60C24.64 72.72 31.92 83.52 43.2 83.52C48.88 83.52 53.36 81.6 56.96 77.04C57.0648 76.9052 57.1585 76.776 57.2461 76.6551C57.6267 76.13 57.8948 75.76 58.48 75.76C59.12 75.76 59.28 76.32 58.88 77.28C56.8 82.72 50.24 89.28 38.4 89.28C23.6 89.28 12.8 78.16 12.8 62.4C12.8 46.64 23.6 35.52 40.08 35.52C48.64 35.52 58.88 38.8 58.88 47.04C58.88 50.24 56.24 52.88 53.04 52.88C49.84 52.88 47.2 50.24 47.2 47.04C47.2 45.3251 47.6136 44.2306 47.9974 43.2146C48.3298 42.3348 48.64 41.5138 48.64 40.4ZM83.2504 67.1767C73.4825 64.094 62.6106 60.6628 62.6106 50C62.6106 41.36 70.9306 35.52 85.2506 35.52C92.7706 35.52 105.251 38.8 105.251 47.04C105.251 50.24 102.611 52.88 99.4106 52.88C96.2106 52.88 93.5706 50.24 93.5706 47.04C93.5706 45.3251 93.9842 44.2306 94.368 43.2146C94.7005 42.3348 95.0106 41.5138 95.0106 40.4C95.0106 38.16 89.8106 37.12 85.2506 37.12C77.5706 37.12 71.9706 39.6 71.9706 45.68C71.9706 52.1357 79.5063 54.3897 87.6279 56.8191C97.1191 59.6582 107.411 62.7366 107.411 73.04C107.411 82.56 98.3706 89.28 83.0906 89.28C72.1306 89.28 60.6906 83.92 60.6906 75.68C60.6906 72.48 63.3306 69.84 66.5306 69.84C69.7306 69.84 72.3706 72.48 72.3706 75.68C72.3706 77.3949 71.9111 78.4894 71.4846 79.5054C71.1152 80.3852 70.7706 81.2062 70.7706 82.32C70.7706 85.92 77.4106 87.68 83.0906 87.68C91.0906 87.68 98.4506 86.24 98.4506 77.76C98.4506 71.9739 91.2177 69.6912 83.2504 67.1767Z" fill="#161616"/>
</svg>
