<svg width="199" height="31" viewBox="0 0 199 31" fill="none" xmlns="http://www.w3.org/2000/svg">
<path d="M11.904 3.648C13.376 3.648 14.656 4.16 14.656 4.96C14.656 5.92 14.08 6.336 14.08 7.616C14.08 8.896 15.136 9.952 16.416 9.952C17.696 9.952 18.752 8.896 18.752 7.616C18.752 4.32 14.656 3.008 11.232 3.008C4.64 3.008 0.32 7.456 0.32 13.76C0.32 20.064 4.64 24.512 10.56 24.512C15.296 24.512 17.92 21.888 18.752 19.712C18.912 19.328 18.848 19.104 18.592 19.104C18.304 19.104 18.208 19.328 17.984 19.616C16.544 21.44 14.752 22.208 12.48 22.208C7.968 22.208 5.056 17.888 5.056 12.8C5.056 6.336 8.704 3.648 11.904 3.648ZM27.8283 24.512C32.8523 24.512 36.1803 20.992 36.1803 16C36.1803 11.008 32.8523 7.488 27.8283 7.488C22.8043 7.488 19.4763 11.008 19.4763 16C19.4763 20.992 22.8043 24.512 27.8283 24.512ZM23.8923 16C23.8923 11.52 25.6203 8 27.8283 8C30.0363 8 31.7643 11.52 31.7643 16C31.7643 20.48 30.0363 24 27.8283 24C25.6203 24 23.8923 20.48 23.8923 16ZM41.5473 0.799999C41.1633 0.799999 40.6833 1.728 39.2113 2.432C38.1873 2.912 36.8113 3.008 36.4273 3.008C36.2993 3.008 36.1713 3.104 36.1713 3.264C36.1713 3.776 37.6432 5.824 37.6432 9.536V16.224C37.6432 21.792 36.1713 23.232 36.1713 23.744C36.1713 23.904 36.2993 24 36.4273 24H43.0193C43.1473 24 43.2753 23.904 43.2753 23.744C43.2753 23.232 41.8033 21.792 41.8033 16.224V1.056C41.8033 0.927999 41.7393 0.799999 41.5473 0.799999ZM51.6095 24.512C56.6335 24.512 59.9615 20.992 59.9615 16C59.9615 11.008 56.6335 7.488 51.6095 7.488C46.5855 7.488 43.2575 11.008 43.2575 16C43.2575 20.992 46.5855 24.512 51.6095 24.512ZM47.6735 16C47.6735 11.52 49.4015 8 51.6095 8C53.8175 8 55.5455 11.52 55.5455 16C55.5455 20.48 53.8175 24 51.6095 24C49.4015 24 47.6735 20.48 47.6735 16ZM71.1525 7.488C68.6565 7.488 66.5125 9.152 65.5845 12.16V7.744C65.5845 7.616 65.5205 7.488 65.3285 7.488C64.9445 7.488 64.4645 8.416 62.9925 9.12C61.9685 9.6 60.5925 9.696 60.2085 9.696C60.0805 9.696 59.9525 9.792 59.9525 9.952C59.9525 10.464 61.4245 12.512 61.4245 16.224C61.4245 21.792 59.9525 23.232 59.9525 23.744C59.9525 23.904 60.0805 24 60.2085 24H66.8005C66.9285 24 67.0565 23.904 67.0565 23.744C67.0565 23.232 65.5845 21.792 65.5845 16.224V15.84C65.5845 11.264 67.7285 8 71.1525 8C71.8245 8 72.3045 8.096 72.3045 8.704C72.3045 9.312 71.5685 10.048 71.5685 11.2C71.5685 12.416 72.5605 13.408 73.7765 13.408C74.9925 13.408 75.9845 12.416 75.9845 11.2C75.9845 8.864 73.7765 7.488 71.1525 7.488ZM84.0195 12.096C84.0195 18.688 94.8995 16.512 94.8995 21.056C94.8995 23.072 93.4275 24 90.7395 24C88.8835 24 87.1875 23.552 87.1875 22.784C87.1875 22.176 87.9235 21.44 87.9235 20.288C87.9235 19.072 86.9315 18.08 85.7155 18.08C84.4995 18.08 83.5075 19.072 83.5075 20.288C83.5075 22.912 87.2835 24.512 90.7395 24.512C96.0835 24.512 98.4515 22.08 98.4515 19.392C98.4515 12.992 87.4435 14.784 87.4435 10.464C87.4435 8.704 88.9795 8 91.4435 8C93.4275 8 94.3555 8.448 94.3555 9.056C94.3555 9.664 93.6195 10.4 93.6195 11.552C93.6195 12.768 94.6115 13.76 95.8275 13.76C97.0435 13.76 98.0355 12.768 98.0355 11.552C98.0355 9.216 95.2835 7.488 91.4435 7.488C87.4755 7.488 84.0195 8.8 84.0195 12.096ZM110.333 21.184V21.952C110.333 23.392 110.845 24.512 112.605 24.512C113.597 24.512 114.749 24.224 115.613 23.872C115.901 23.744 115.965 23.616 115.965 23.456C115.965 22.944 114.493 21.792 114.493 16.224V15.264C114.493 10.272 112.477 7.488 106.781 7.488C102.941 7.488 100.541 9.216 100.541 11.552C100.541 12.768 101.533 13.76 102.749 13.76C103.965 13.76 104.957 12.768 104.957 11.552C104.957 10.4 104.221 9.664 104.221 9.056C104.221 8.448 104.797 8 106.781 8C108.861 8 109.725 9.44 110.077 11.52C109.053 15.776 99.1013 13.568 99.1013 19.968C99.1013 22.432 100.893 24.512 105.053 24.512C108.029 24.512 109.597 22.848 110.333 21.184ZM103.517 20.288C103.517 16.064 108.573 15.104 110.205 12.48C110.333 13.504 110.333 14.624 110.333 15.776V18.848C110.333 21.792 108.317 23.68 106.461 23.68C104.893 23.68 103.517 22.656 103.517 20.288ZM122.297 7.488C121.913 7.488 121.433 8.416 119.961 9.12C118.937 9.6 117.561 9.696 117.177 9.696C117.049 9.696 116.921 9.792 116.921 9.952C116.921 10.464 118.393 12.512 118.393 16.224C118.393 21.792 116.921 23.232 116.921 23.744C116.921 23.904 117.049 24 117.177 24H123.769C123.897 24 124.025 23.904 124.025 23.744C124.025 23.232 122.553 21.792 122.553 16.224V15.84C122.553 11.936 123.865 8.8 125.401 8.8C126.937 8.8 128.249 11.936 128.249 15.84V16.224C128.249 21.792 126.777 23.232 126.777 23.744C126.777 23.904 126.905 24 127.033 24H133.625C133.753 24 133.881 23.904 133.881 23.744C133.881 23.232 132.409 21.792 132.409 16.224V15.84C132.409 11.936 133.721 8.8 135.257 8.8C136.793 8.8 138.105 11.936 138.105 15.84V16.224C138.105 21.792 136.633 23.232 136.633 23.744C136.633 23.904 136.761 24 136.889 24H143.481C143.609 24 143.737 23.904 143.737 23.744C143.737 23.232 142.265 21.792 142.265 16.224V15.264C142.265 10.08 140.057 7.488 137.081 7.488C134.745 7.488 132.889 9.216 132.185 12.64C131.545 9.216 129.657 7.488 127.225 7.488C125.113 7.488 123.385 8.896 122.553 11.744V7.744C122.553 7.616 122.489 7.488 122.297 7.488ZM150.022 20.704V14.336C150.022 10.88 151.814 8.416 153.542 8.416C155.75 8.416 156.966 11.52 156.966 16C156.966 20.48 155.238 24 153.03 24C151.302 24 150.022 22.944 150.022 20.704ZM144.39 30.144C144.39 30.304 144.518 30.4 144.646 30.4H151.238C151.366 30.4 151.494 30.304 151.494 30.144C151.494 29.664 150.246 28.416 150.054 23.872C150.79 24.16 151.686 24.512 153.03 24.512C158.054 24.512 161.382 20.48 161.382 15.488C161.382 11.008 159.046 7.488 155.046 7.488C152.678 7.488 150.854 8.864 150.022 11.168V7.744C150.022 7.616 149.958 7.488 149.766 7.488C149.382 7.488 148.902 8.416 147.43 9.12C146.406 9.6 145.03 9.696 144.646 9.696C144.518 9.696 144.39 9.792 144.39 9.952C144.39 10.464 145.862 12.512 145.862 16.224V22.624C145.862 28.192 144.39 29.632 144.39 30.144ZM166.735 0.799999C166.351 0.799999 165.871 1.728 164.399 2.432C163.375 2.912 161.999 3.008 161.615 3.008C161.487 3.008 161.359 3.104 161.359 3.264C161.359 3.776 162.831 5.824 162.831 9.536V16.224C162.831 21.792 161.359 23.232 161.359 23.744C161.359 23.904 161.487 24 161.615 24H168.207C168.335 24 168.463 23.904 168.463 23.744C168.463 23.232 166.991 21.792 166.991 16.224V1.056C166.991 0.927999 166.927 0.799999 166.735 0.799999ZM177.181 8C178.589 8 179.293 9.248 179.293 11.008C179.293 13.984 177.053 18.592 173.373 18.592C173.053 17.6 172.861 16.48 172.861 15.2C172.861 10.72 175.165 8 177.181 8ZM168.445 16C168.445 20.992 171.773 24.512 176.797 24.512C181.021 24.512 183.037 21.824 183.357 20.288C183.389 20.16 183.325 20.032 183.165 20.032C183.005 20.032 182.909 20.16 182.621 20.544C182.173 21.152 180.829 22.528 178.621 22.528C176.253 22.528 174.493 21.248 173.565 19.104C178.749 19.04 183.389 16.864 183.389 12.672C183.389 9.952 181.437 7.488 177.053 7.488C171.773 7.488 168.445 11.008 168.445 16ZM184.551 12.096C184.551 18.688 195.431 16.512 195.431 21.056C195.431 23.072 193.959 24 191.271 24C189.415 24 187.719 23.552 187.719 22.784C187.719 22.176 188.455 21.44 188.455 20.288C188.455 19.072 187.463 18.08 186.247 18.08C185.031 18.08 184.039 19.072 184.039 20.288C184.039 22.912 187.815 24.512 191.271 24.512C196.615 24.512 198.983 22.08 198.983 19.392C198.983 12.992 187.975 14.784 187.975 10.464C187.975 8.704 189.511 8 191.975 8C193.959 8 194.887 8.448 194.887 9.056C194.887 9.664 194.151 10.4 194.151 11.552C194.151 12.768 195.143 13.76 196.359 13.76C197.575 13.76 198.567 12.768 198.567 11.552C198.567 9.216 195.815 7.488 191.975 7.488C188.007 7.488 184.551 8.8 184.551 12.096Z" fill="#161616"/>
</svg>
